<svg id="Layer_1" xmlns="http://www.w3.org/2000/svg" viewBox="0 0 512 512"><style>.st1{fill:#fff}</style><linearGradient id="SVGID_1_" gradientUnits="userSpaceOnUse" x1="80.785" y1="-257.996" x2="433.423" y2="-257.996" gradientTransform="translate(0 514)"><stop offset="0" stop-color="#c82890"/><stop offset=".51" stop-color="#e92256"/><stop offset="1" stop-color="#ef4823"/></linearGradient><path d="M431.6 181.4v-9.3c0-1.9-.5-3.8-1.3-5.5 4.8-18.2 4-37.4-2.3-55.1-1.5-5.9-3-11-3.8-13.4 1.8-43.8.9-81.8.9-82.2-.2-6.8-5.8-12.1-12.6-11.9-.7 0-1.3.1-2 .2C384 9.3 359.3 21.3 339 39c-51.6-27.2-113.3-27-164.8.5-20.5-18-45.4-30.2-72.2-35.2C95.4 3 88.9 7.4 87.6 14c-.1.7-.2 1.4-.2 2.1 0 .4-.8 39.7 1 83.8-3.2 9.1-5.3 18.5-6.3 28.1-2.1 12.6-1.6 25.5 1.7 37.8-1.1 1.9-1.7 4-1.8 6.2v22c.1 14.9 2.1 29.7 5.9 44.1C131.5 481.8 415 506.7 418.1 506.9L432 508V207.9c.4-4.6.6-9.2.6-13.8-.1-4.3-.4-8.5-1-12.7z" fill="url(#SVGID_1_)"/><path class="st1" d="M111.9 32.1c13.8 4.3 26.8 10.9 38.3 19.5-14.2 3.9-27.4 11.1-38.3 21V32.1zM400.5 71.2c-10.9-9.4-23.7-16.2-37.6-19.9 11.5-8.5 24.3-15 37.9-19.2.1 9.4 0 23.3-.3 39.1zM257.1 369.2c18.3 0 36.4-2.9 53.8-8.5 2.2 27.5 17.6 78.8 95 110.8v8.7c-41.5-6.3-179.7-35.2-252.4-145.1 29.9 22.2 66.3 34.1 103.6 34.1zM338.7 349.1c27.5-14.6 50.7-36.1 67.1-62.5v156.2c-68.7-33.3-68.3-82.1-67.1-93.7zM257.1 344.8c-63.2-.1-119.7-39.5-141.5-98.8-2.6-11.5-4.6-23.1-5.9-34.9 32.6 31.6 83 35.6 120.1 9.5l17.6 30.5c3.1 5.4 10 7.3 15.4 4.2 1.7-1 3.2-2.4 4.2-4.2l17.6-30.4c37.8 26.4 89 21.7 121.4-11v8.3c-11.9 73-74.9 126.7-148.9 126.8z"/><path class="st1" d="M272.6 204.5l-15.3 26.6-15.5-26.8c5.7-6.6 10.8-13.7 15.2-21.1 4.5 7.5 9.7 14.7 15.6 21.3zM338.6 210.7c-37.6 0-68-30.5-68-68.1 0-37.6 30.5-68 68.1-68 37.6 0 68 30.5 68 68v.2c-.3 37.6-30.7 67.9-68.1 67.9zM175.6 74.9c37.6 0 68 30.5 68 68s-30.5 68-68 68-68-30.5-68-68 30.5-68 68-68zM257.1 94.5c-11.7-19.8-30.2-34.6-52.1-41.8 33.6-12.4 70.6-12.4 104.2 0-21.8 7.2-40.4 22-52.1 41.8z"/><linearGradient id="SVGID_2_" gradientUnits="userSpaceOnUse" x1="136.245" y1="-371.087" x2="214.99" y2="-371.087" gradientTransform="translate(0 514)"><stop offset="0" stop-color="#c82890"/><stop offset=".51" stop-color="#e92256"/><stop offset="1" stop-color="#ef4823"/></linearGradient><path d="M175.6 182.2c21.7 0 39.4-17.6 39.4-39.4s-17.6-39.4-39.4-39.4c-6.3 0-12.5 1.5-18.1 4.4l-9.8 5.1 9.7 5.3c2.4 2.2 2.6 5.9.4 8.4s-5.9 2.6-8.4.4l-6.2-9.1-4.1 10.2c-8.2 20.1 1.5 43.1 21.6 51.2 4.8 2.1 9.9 3 14.9 2.9z" fill="url(#SVGID_2_)"/><linearGradient id="SVGID_3_" gradientUnits="userSpaceOnUse" x1="299.155" y1="-370.969" x2="377.906" y2="-370.969" gradientTransform="translate(0 514)"><stop offset="0" stop-color="#c82890"/><stop offset=".51" stop-color="#e92256"/><stop offset="1" stop-color="#ef4823"/></linearGradient><path d="M370.9 118l-6.2 9.2c-2.4 2.2-6.2 2-8.4-.4s-2-6.2.4-8.4l9.7-5.3-9.8-5c-5.6-2.9-11.8-4.4-18.1-4.4-21.7 0-39.4 17.6-39.4 39.4 0 21.7 17.6 39.4 39.4 39.4 21.7 0 39.4-17.6 39.4-39.4 0-5.1-1-10.1-2.9-14.8l-4.1-10.3z" fill="url(#SVGID_3_)"/><g id="_Group_"><linearGradient id="SVGID_4_" gradientUnits="userSpaceOnUse" x1="341.522" y1="-275.994" x2="468.08" y2="-275.994" gradientTransform="translate(0 514)"><stop offset="0" stop-color="#c82890"/><stop offset=".51" stop-color="#e92256"/><stop offset="1" stop-color="#ef4823"/></linearGradient><path d="M348.7 255.6c-4 0-7.2-3.2-7.2-7.1 0-2.4 1.1-4.6 3.1-5.9 1.3-.9 32.3-22.1 84.2-22.1 11.2 0 22.3 1 33.3 2.8 3.9.7 6.5 4.4 5.8 8.3-.6 3.4-3.5 5.9-7 5.9h-1.2c-10.1-1.7-20.4-2.6-30.6-2.6-47.7 0-76.3 19.3-76.3 19.4-1.2.9-2.6 1.3-4.1 1.3z" fill="url(#SVGID_4_)"/><linearGradient id="_Path__1_" gradientUnits="userSpaceOnUse" x1="343.335" y1="-275.994" x2="466.483" y2="-275.994" gradientTransform="translate(0 514)"><stop offset="0" stop-color="#c82890"/><stop offset=".51" stop-color="#e92256"/><stop offset="1" stop-color="#ef4823"/></linearGradient><path id="_Path_" d="M348.7 253.8c-3 0-5.4-2.4-5.4-5.4 0-1.8.9-3.4 2.3-4.4 1.8-1.2 45.4-30.8 116.3-19 2.9.7 4.6 3.7 3.9 6.6-.7 2.5-3 4.2-5.6 4-66.5-11-107.9 17-108.4 17.3-.9.6-2 .9-3.1.9z" fill="url(#_Path__1_)"/><linearGradient id="SVGID_5_" gradientUnits="userSpaceOnUse" x1="347.814" y1="-254.026" x2="475.659" y2="-254.026" gradientTransform="translate(0 514)"><stop offset="0" stop-color="#c82890"/><stop offset=".51" stop-color="#e92256"/><stop offset="1" stop-color="#ef4823"/></linearGradient><path d="M468.5 274.2c-.9 0-1.9-.2-2.8-.5-21.3-9-44.2-13.8-67.4-13.9-3.4-.1-6.7 0-10 .4-10.5.6-20.8 2.5-30.7 5.9-3.7 1.5-7.8-.3-9.3-4-1.5-3.7.3-7.8 4-9.3 14.8-5 30.5-7.5 46.1-7.2 25 .2 49.7 5.3 72.7 15.1 3.7 1.5 5.4 5.7 3.9 9.3-1.1 2.7-3.7 4.5-6.7 4.5l.2-.3z" fill="url(#SVGID_5_)"/><linearGradient id="_Path_2_1_" gradientUnits="userSpaceOnUse" x1="349.586" y1="-254.161" x2="473.845" y2="-254.161" gradientTransform="translate(0 514)"><stop offset="0" stop-color="#c82890"/><stop offset=".51" stop-color="#e92256"/><stop offset="1" stop-color="#ef4823"/></linearGradient><path id="_Path_2" d="M468.5 272.5c-.7 0-1.4-.1-2.1-.4-24.7-10.5-51.5-15.2-78.2-13.7-10.6.5-21.1 2.5-31.2 5.9-2.8 1-5.9-.4-6.9-3.2-1-2.7.3-5.7 2.9-6.8 2.1-.8 51.2-19.7 117.4 7.9 2.8 1.2 4 4.3 2.9 7.1-.8 2-2.8 3.3-4.9 3.3l.1-.1z" fill="url(#_Path_2_1_)"/></g><g id="_Group_2"><linearGradient id="SVGID_6_" gradientUnits="userSpaceOnUse" x1="43.844" y1="-276.024" x2="170.401" y2="-276.024" gradientTransform="translate(0 514)"><stop offset="0" stop-color="#c82890"/><stop offset=".51" stop-color="#e92256"/><stop offset="1" stop-color="#ef4823"/></linearGradient><path d="M163.3 255.6c-1.4 0-2.9-.5-4-1.3-23.2-13.3-49.6-20-76.3-19.4-10.2 0-20.4.9-30.5 2.6h-1.2c-4 0-7.1-3.3-7.1-7.2 0-3.4 2.5-6.4 5.9-7 11-1.9 22.2-2.8 33.3-2.8 51.9 0 82.9 21.1 84.2 22.1 3.2 2.3 4 6.7 1.8 10a7.16 7.16 0 0 1-5.9 3.1l-.2-.1z" fill="url(#SVGID_6_)"/><linearGradient id="_Path_3_1_" gradientUnits="userSpaceOnUse" x1="45.606" y1="-275.931" x2="168.754" y2="-275.931" gradientTransform="translate(0 514)"><stop offset="0" stop-color="#c82890"/><stop offset=".51" stop-color="#e92256"/><stop offset="1" stop-color="#ef4823"/></linearGradient><path id="_Path_3" d="M163.3 253.8c-1.1 0-2.2-.4-3.1-1-.4 0-42-28.2-108.4-17.1-3 .2-5.6-2-5.8-5-.2-2.6 1.5-5 4-5.6 70.9-11.7 114.5 17.6 116.3 19 2.5 1.7 3.1 5.1 1.4 7.5-.9 1.4-2.5 2.2-4.4 2.2z" fill="url(#_Path_3_1_)"/><linearGradient id="SVGID_7_" gradientUnits="userSpaceOnUse" x1="36.343" y1="-254.223" x2="164.186" y2="-254.223" gradientTransform="translate(0 514)"><stop offset="0" stop-color="#c82890"/><stop offset=".51" stop-color="#e92256"/><stop offset="1" stop-color="#ef4823"/></linearGradient><path d="M43.5 274.2c-4 0-7.2-3.2-7.2-7.1 0-2.9 1.7-5.6 4.5-6.7 23-9.8 47.7-14.9 72.7-15.1 15.7-.3 31.3 2.1 46.1 7.2 3.7 1.5 5.5 5.6 4 9.3-1.5 3.7-5.6 5.5-9.3 4-13.3-4.2-27.2-6.2-41.1-5.9-23.1.1-45.9 4.8-67.1 13.9-.8.3-1.7.4-2.6.4z" fill="url(#SVGID_7_)"/><linearGradient id="_Path_4_1_" gradientUnits="userSpaceOnUse" x1="38.184" y1="-254.199" x2="162.449" y2="-254.199" gradientTransform="translate(0 514)"><stop offset="0" stop-color="#c82890"/><stop offset=".51" stop-color="#e92256"/><stop offset="1" stop-color="#ef4823"/></linearGradient><path id="_Path_4" d="M43.5 272.5c-3 0-5.4-2.5-5.4-5.4 0-2.2 1.3-4.1 3.3-4.9 66.4-27.6 115.5-8.7 117.4-7.9 2.8 1 4.3 4.1 3.2 6.9-1 2.8-4.1 4.3-6.9 3.2-.1 0-.2-.1-.3-.1-.6 0-47.4-17.9-109.4 7.8-.5.2-1.2.3-1.9.4z" fill="url(#_Path_4_1_)"/></g></svg>