<svg id="Layer_1" xmlns="http://www.w3.org/2000/svg" viewBox="0 0 334.7 98.7"><style>.st1{fill:#fff}.st12{fill:#ccc}</style><linearGradient id="SVGID_1_" gradientUnits="userSpaceOnUse" x1="17.691" y1="-569.683" x2="77.731" y2="-569.683" gradientTransform="matrix(1 0 0 -1 0 -520)"><stop offset="0" stop-color="#c82890"/><stop offset=".51" stop-color="#e92256"/><stop offset="1" stop-color="#ef4823"/></linearGradient><path d="M77.5 37v-1.6c0-.3-.1-.6-.2-.9.8-3.1.7-6.4-.4-9.4-.3-1-.5-1.9-.6-2.3.3-7.5.2-13.9.2-14 0-1.2-1-2.1-2.1-2h-.3c-4.5.9-8.7 2.9-12.2 5.9-8.8-4.6-19.3-4.6-28.1.1-3.5-3.1-7.7-5.1-12.3-6-1.1-.2-2.2.5-2.5 1.7v.3c0 .1-.1 6.8.2 14.3-.5 1.5-.9 3.2-1.1 4.8-.4 2.1-.3 4.3.3 6.5-.2.3-.3.7-.3 1v3.7c0 2.5.3 5.1 1 7.5 7.4 41.5 55.7 45.8 56.3 45.8l2.4.2V41.5c.1-.8.1-1.6.1-2.3s-.4-1.5-.4-2.2z" fill="url(#SVGID_1_)"/><path class="st1" d="M23 11.6c2.4.7 4.6 1.9 6.5 3.3-2.4.7-4.7 1.9-6.5 3.6v-6.9zM72.2 18.2c-1.9-1.6-4-2.8-6.4-3.4 2-1.4 4.1-2.6 6.5-3.3-.1 1.7-.1 4-.1 6.7zM47.7 69c3.1 0 6.2-.5 9.2-1.4.4 4.7 3 13.4 16.2 18.9V88c-7.1-1.1-30.6-6-43-24.7C35.2 67 41.4 69 47.7 69zM61.6 65.6c4.7-2.5 8.6-6.2 11.4-10.7v26.6c-11.6-5.6-11.6-13.9-11.4-15.9zM47.7 64.8C37 64.8 27.3 58.1 23.6 48c-.4-2-.8-3.9-1-5.9 5.5 5.4 14.1 6.1 20.5 1.6l3 5.2c.5.9 1.7 1.2 2.6.7.3-.2.5-.4.7-.7l3-5.2c6.4 4.5 15.2 3.7 20.7-1.9v1.4c-2 12.5-12.8 21.6-25.4 21.6z"/><path class="st1" d="M50.4 41l-2.6 4.5-2.6-4.6c1-1.1 1.8-2.3 2.6-3.6.7 1.3 1.6 2.5 2.6 3.7zM61.6 42C55.2 42 50 36.8 50 30.4s5.2-11.6 11.6-11.6S73.2 24 73.2 30.4C73.2 36.8 68 42 61.6 42zM33.8 18.9c6.4 0 11.6 5.2 11.6 11.6S40.3 42 33.9 42s-11.6-5.2-11.6-11.6c0-6.3 5.2-11.5 11.5-11.5zM47.7 22.2c-2-3.4-5.2-5.9-8.9-7.1 5.7-2.1 12-2.1 17.8 0-3.7 1.2-6.9 3.7-8.9 7.1z"/><linearGradient id="SVGID_2_" gradientUnits="userSpaceOnUse" x1="27.146" y1="-550.5" x2="40.566" y2="-550.5" gradientTransform="matrix(1 0 0 -1 0 -520)"><stop offset="0" stop-color="#c82890"/><stop offset=".51" stop-color="#e92256"/><stop offset="1" stop-color="#ef4823"/></linearGradient><path d="M33.8 37.2c3.7-.1 6.6-3.3 6.4-7-.1-3.5-2.9-6.3-6.4-6.4-1.1 0-2.1.3-3.1.8l-1.7.9 1.6.9c.4.4.4 1 .1 1.4-.4.4-1 .4-1.4.1l-1-1.6-.7 1.7c-1.4 3.4.3 7.3 3.7 8.7.8.3 1.7.5 2.5.5z" fill="url(#SVGID_2_)"/><linearGradient id="SVGID_3_" gradientUnits="userSpaceOnUse" x1="54.9" y1="-550.4" x2="68.32" y2="-550.4" gradientTransform="matrix(1 0 0 -1 0 -520)"><stop offset="0" stop-color="#c82890"/><stop offset=".51" stop-color="#e92256"/><stop offset="1" stop-color="#ef4823"/></linearGradient><path d="M67.1 26.2L66 27.8c-.4.4-1 .3-1.4-.1s-.3-1 .1-1.4l1.7-.9-1.7-.9c-1-.5-2-.8-3.1-.8a6.7 6.7 0 1 0 6.7 6.7c0-.9-.2-1.7-.5-2.5l-.7-1.7z" fill="url(#SVGID_3_)"/><g id="_Group_"><linearGradient id="SVGID_4_" gradientUnits="userSpaceOnUse" x1="62.1" y1="-566.6" x2="83.68" y2="-566.6" gradientTransform="matrix(1 0 0 -1 0 -520)"><stop offset="0" stop-color="#c82890"/><stop offset=".51" stop-color="#e92256"/><stop offset="1" stop-color="#ef4823"/></linearGradient><path d="M63.3 49.6c-.7 0-1.2-.5-1.2-1.2 0-.4.2-.8.5-1 .2-.2 5.5-3.8 14.3-3.8 1.9 0 3.8.2 5.7.5.7.1 1.1.8 1 1.4-.1.6-.6 1-1.2 1h-.2c-1.7-.3-3.5-.4-5.2-.4-8.1 0-13 3.3-13 3.3-.2.2-.4.2-.7.2z" fill="url(#SVGID_4_)"/><linearGradient id="_Path__1_" gradientUnits="userSpaceOnUse" x1="62.4" y1="-566.614" x2="83.38" y2="-566.614" gradientTransform="matrix(1 0 0 -1 0 -520)"><stop offset="0" stop-color="#c82890"/><stop offset=".51" stop-color="#e92256"/><stop offset="1" stop-color="#ef4823"/></linearGradient><path id="_Path_" d="M63.3 49.3c-.5 0-.9-.4-.9-.9 0-.3.1-.6.4-.8.3-.2 7.7-5.2 19.8-3.2.5.1.8.6.7 1.1-.1.4-.5.7-1 .7-11.3-1.9-18.4 2.9-18.5 2.9-.1.2-.3.2-.5.2z" fill="url(#_Path__1_)"/><linearGradient id="SVGID_5_" gradientUnits="userSpaceOnUse" x1="63.189" y1="-570.352" x2="84.971" y2="-570.352" gradientTransform="matrix(1 0 0 -1 0 -520)"><stop offset="0" stop-color="#c82890"/><stop offset=".51" stop-color="#e92256"/><stop offset="1" stop-color="#ef4823"/></linearGradient><path d="M83.8 52.8c-.2 0-.3 0-.5-.1-3.6-1.5-7.5-2.3-11.5-2.4-.6 0-1.2 0-1.7.1-1.8.1-3.5.4-5.2 1-.6.2-1.3-.1-1.6-.7-.2-.6.1-1.3.7-1.6 2.5-.9 5.2-1.3 7.9-1.2 4.3 0 8.5.9 12.4 2.6.6.3.9 1 .7 1.6-.3.5-.8.8-1.2.7z" fill="url(#SVGID_5_)"/><linearGradient id="_Path_2_1_" gradientUnits="userSpaceOnUse" x1="63.49" y1="-570.341" x2="84.643" y2="-570.341" gradientTransform="matrix(1 0 0 -1 0 -520)"><stop offset="0" stop-color="#c82890"/><stop offset=".51" stop-color="#e92256"/><stop offset="1" stop-color="#ef4823"/></linearGradient><path id="_Path_2" d="M83.8 52.5c-.1 0-.2 0-.3-.1-4.2-1.8-8.8-2.6-13.3-2.3-1.8.1-3.6.4-5.3 1-.5.2-1 0-1.2-.5s0-1 .5-1.2c.3-.1 8.7-3.4 20 1.3.5.2.7.7.5 1.2-.3.4-.6.6-.9.6z" fill="url(#_Path_2_1_)"/></g><g id="_Group_2"><linearGradient id="SVGID_6_" gradientUnits="userSpaceOnUse" x1="11.4" y1="-566.6" x2="32.98" y2="-566.6" gradientTransform="matrix(1 0 0 -1 0 -520)"><stop offset="0" stop-color="#c82890"/><stop offset=".51" stop-color="#e92256"/><stop offset="1" stop-color="#ef4823"/></linearGradient><path d="M31.8 49.6c-.2 0-.5-.1-.7-.2-4-2.3-8.4-3.4-13-3.3-1.7 0-3.5.2-5.2.4h-.2c-.7 0-1.2-.6-1.2-1.2s.4-1.1 1-1.2c1.9-.3 3.8-.5 5.7-.5 8.8 0 14.1 3.6 14.4 3.8.6.4.7 1.1.3 1.7-.3.3-.7.5-1.1.5z" fill="url(#SVGID_6_)"/><linearGradient id="_Path_3_1_" gradientUnits="userSpaceOnUse" x1="11.7" y1="-566.627" x2="32.68" y2="-566.627" gradientTransform="matrix(1 0 0 -1 0 -520)"><stop offset="0" stop-color="#c82890"/><stop offset=".51" stop-color="#e92256"/><stop offset="1" stop-color="#ef4823"/></linearGradient><path id="_Path_3" d="M31.8 49.3c-.2 0-.4-.1-.5-.2-.1 0-7.2-4.8-18.5-2.9-.5 0-1-.3-1-.8s.3-.9.7-1c12.1-2 19.5 3 19.8 3.2.4.3.5.9.2 1.3-.1.3-.4.5-.7.4z" fill="url(#_Path_3_1_)"/><linearGradient id="SVGID_7_" gradientUnits="userSpaceOnUse" x1="10.12" y1="-570.344" x2="31.901" y2="-570.344" gradientTransform="matrix(1 0 0 -1 0 -520)"><stop offset="0" stop-color="#c82890"/><stop offset=".51" stop-color="#e92256"/><stop offset="1" stop-color="#ef4823"/></linearGradient><path d="M11.4 52.8c-.7 0-1.2-.5-1.2-1.2 0-.5.3-1 .8-1.1 3.9-1.7 8.1-2.5 12.4-2.6 2.7-.1 5.3.4 7.9 1.2.6.2.9 1 .7 1.6s-1 .9-1.6.7c-2.3-.7-4.6-1.1-7-1-3.9 0-7.8.8-11.4 2.4h-.6z" fill="url(#SVGID_7_)"/><linearGradient id="_Path_4_1_" gradientUnits="userSpaceOnUse" x1="10.432" y1="-570.375" x2="31.609" y2="-570.375" gradientTransform="matrix(1 0 0 -1 0 -520)"><stop offset="0" stop-color="#c82890"/><stop offset=".51" stop-color="#e92256"/><stop offset="1" stop-color="#ef4823"/></linearGradient><path id="_Path_4" d="M11.4 52.5c-.5 0-.9-.4-.9-.9 0-.4.2-.7.6-.8 11.3-4.7 19.7-1.5 20-1.3.5.2.7.7.5 1.2s-.7.7-1.2.5c-.1 0-8.1-3-18.6 1.3h-.4z" fill="url(#_Path_4_1_)"/></g><path class="st1" d="M98.1 31c0-8.7 6.6-14.1 14.8-14.1 4.8-.2 9.3 2.4 11.7 6.6l-5.9 3.1c-1.2-2.1-3.4-3.4-5.8-3.5-4.2 0-7.6 3.3-7.6 7.5v.4c-.2 4.2 3 7.7 7.2 7.9h.4c1.8 0 3.5-.6 5-1.6v-2.1h-6.1V29H125v10.8c-3 3.4-7.5 5.4-12.1 5.3-8.2 0-14.8-5.4-14.8-14.1zM127.5 34.7c0-5.6 4-10.3 10.7-10.3S149 29.2 149 34.7s-4 10.4-10.8 10.4-10.7-4.8-10.7-10.4zm15.1 0c0-2.6-1.6-4.8-4.3-4.8s-4.3 2.2-4.3 4.8 1.5 4.8 4.3 4.8 4.3-2.1 4.3-4.8zM164 44.6v-2c-1.6 1.6-3.8 2.5-6.1 2.5-3 0-6.8-2-6.8-6.5 0-4.8 3.8-6.3 6.8-6.3 2.6 0 4.9.8 6.1 2.3v-2.3c0-1.7-1.5-2.9-4-2.9-2.1 0-4 .8-5.6 2.1l-2.2-4c2.5-2 5.7-3.1 8.9-3.1 4.7 0 9.2 1.8 9.2 7.9v12.4l-6.3-.1zm0-5.1v-1.7c-.9-1-2.2-1.5-3.5-1.4-1.7 0-3.1.7-3.1 2.3s1.5 2.3 3.1 2.3c1.3 0 2.6-.5 3.5-1.5zM174.9 44.6V17.3h6.3v27.2l-6.3.1zM185.3 19.5c0-2 1.7-3.6 3.6-3.6 2 0 3.6 1.7 3.6 3.6 0 2-1.6 3.6-3.6 3.6-2 .1-3.6-1.5-3.6-3.6 0 .1 0 0 0 0zm.5 25.1V24.9h6.2v19.7h-6.2zM198 44.6V30.3h-3.3v-5.5h3.3v-1c-.1-3.7 2.7-6.8 6.4-6.9h.6c2.1-.1 4.1.6 5.7 2l-2.3 3.6c-.5-.6-1.2-.8-2-.8-1.1-.1-2.1.8-2.2 1.9v1.2h4v5.5h-4v14.2l-6.2.1z"/><path class="st1" d="M211.4 46.7c.5.2 1 .4 1.6.4 1.4 0 2.3-.3 2.7-1.1l.4-1.1-7.9-20h6.6l4.4 12.5 4.5-12.5h6.7l-8.9 22.6c-1.6 4.2-4.6 5.1-8.3 5.2-.9 0-1.8-.1-2.7-.3l.9-5.7zM241.5 31c0-8.4 6.4-14.1 14.8-14.1 5.1-.2 9.8 2.7 11.9 7.3l-6 2.9c-1-2.4-3.3-3.9-5.8-4-4.2 0-7.6 3.3-7.6 7.5v.4c-.2 4.2 3 7.7 7.2 7.9h.4c2.6-.1 4.8-1.6 5.8-4l6 2.9c-2.1 4.6-6.8 7.5-11.9 7.3-8.4 0-14.8-5.7-14.8-14.1zM284.4 44.6V33.1c0-2.4-1.3-3.2-3.3-3.2-1.5 0-2.9.7-3.8 1.9v12.8H271V17.3h6.3v9.9c1.7-1.9 4.2-3 6.8-2.9 4.5 0 6.5 2.5 6.5 6.2v14l-6.2.1zM307 44.6v-2c-1.6 1.6-3.8 2.5-6.1 2.5-3 0-6.8-2-6.8-6.5 0-4.8 3.8-6.3 6.8-6.3 2.6 0 4.9.8 6.1 2.3v-2.3c0-1.7-1.5-2.9-4-2.9-2.1 0-4 .8-5.6 2.1l-2.2-4c2.5-2 5.7-3.1 8.9-3 4.7 0 9.2 1.8 9.2 7.9v12.3l-6.3-.1zm0-5.1v-1.8c-.9-1-2.2-1.5-3.5-1.4-1.7 0-3.1.7-3.1 2.3s1.5 2.3 3.1 2.3c1.3.1 2.6-.4 3.5-1.4zM319.1 39.3v-8.9h-3.3v-5.5h3.3v-5.4h6.2v5.4h4v5.5h-4v7.1c-.1 1 .6 1.9 1.6 2h.2c.6 0 1.1-.1 1.6-.5l1.3 4.8c-.8.7-2.3 1.3-4.7 1.3-4 0-6.2-2-6.2-5.8z"/><g><path class="st12" d="M98.5 82.4V60.7h10.7c3.9 0 6.2 2.5 6.2 5.6 0 2.7-1.9 4.5-3.7 4.9 2.3.4 4.1 2.7 4.1 5.4 0 3.3-2.3 5.8-6.4 5.8H98.5zm13-15.5c0-1.6-1-2.9-3.1-2.9h-6v5.6h6c2 0 3.1-1 3.1-2.7zm.4 9.1c0-1.6-1.2-2.9-3.3-2.9h-6.2v6h6.2c2.1 0 3.3-1.3 3.3-3.1zM118.5 74.5c0-4.5 3.3-8.2 8-8.2s7.6 3.5 7.6 8.4v.8h-11.9c.2 2.3 2.1 4.3 4.9 4.3 1.4 0 3.3-.6 4.5-1.6l1.6 2.3c-1.6 1.4-3.9 2.3-6.4 2.3-4.8 0-8.3-3.3-8.3-8.3zm8-5.3c-2.9 0-4.3 2.3-4.3 4.1h8.9c-.3-1.9-1.5-4.1-4.6-4.1zM138.3 78.6v-9.1h-2.7v-2.9h2.7v-4.3h3.5v4.3h3.1v2.9h-3.1v8.2c0 1 .6 1.9 1.4 1.9.6 0 1.2-.2 1.4-.6l.8 2.5c-.6.6-1.6 1-3.3 1-2.4.3-3.8-1.2-3.8-3.9zM157.4 82.4v-1.6c-1.2 1.2-2.9 2.1-5.1 2.1-2.5 0-5.4-1.6-5.4-5.1s2.9-5.1 5.4-5.1c2.1 0 3.9.6 5.1 2.1v-2.3c0-1.9-1.4-2.9-3.7-2.9-1.9 0-3.3.6-4.7 2.1l-1.4-2.3c1.9-1.6 4.1-2.5 6.6-2.5 3.5 0 6.6 1.4 6.6 5.8V83h-3.3v-.6h-.1zm0-3.5v-2.3c-.8-1-2.3-1.6-3.7-1.6-1.9 0-3.3 1-3.3 2.9 0 1.6 1.4 2.9 3.3 2.9 1.6-.3 3.1-.9 3.7-1.9z"/></g></svg>