<svg id="Layer_1" xmlns="http://www.w3.org/2000/svg" viewBox="0 0 319 51.3"><style>.st11{fill:#666}</style><linearGradient id="SVGID_1_" gradientUnits="userSpaceOnUse" x1=".018" y1="37.727" x2="29.016" y2="37.727" gradientTransform="matrix(1 0 0 -1 0 54)"><stop offset="0" stop-color="#c82890"/><stop offset=".51" stop-color="#e92256"/><stop offset="1" stop-color="#ef4823"/></linearGradient><path d="M0 16.3C0 6.9 7.1 1.1 16 1.1c5.2-.2 10 2.6 12.6 7.1l-6.4 3.3c-1.3-2.3-3.7-3.7-6.3-3.8-4.5 0-8.2 3.6-8.2 8.1v.4c-.2 4.5 3.2 8.3 7.8 8.5h.4c1.9 0 3.8-.6 5.4-1.7v-2.3h-6.6V14H29v11.6c-3.2 3.7-8.1 5.8-13 5.7-8.9.2-16-5.6-16-15z" fill="url(#SVGID_1_)"/><linearGradient id="SVGID_2_" gradientUnits="userSpaceOnUse" x1="31.711" y1="33.68" x2="54.887" y2="33.68" gradientTransform="matrix(1 0 0 -1 0 54)"><stop offset="0" stop-color="#c82890"/><stop offset=".51" stop-color="#e92256"/><stop offset="1" stop-color="#ef4823"/></linearGradient><path d="M31.7 20.3c0-6 4.3-11.1 11.5-11.1s11.6 5.2 11.6 11.1-4.3 11.2-11.6 11.2-11.5-5.2-11.5-11.2zm16.3 0c0-2.8-1.7-5.2-4.6-5.2s-4.6 2.4-4.6 5.2 1.6 5.2 4.6 5.2 4.6-2.3 4.6-5.2z" fill="url(#SVGID_2_)"/><linearGradient id="SVGID_3_" gradientUnits="userSpaceOnUse" x1="57.151" y1="33.68" x2="77.848" y2="33.68" gradientTransform="matrix(1 0 0 -1 0 54)"><stop offset="0" stop-color="#c82890"/><stop offset=".51" stop-color="#e92256"/><stop offset="1" stop-color="#ef4823"/></linearGradient><path d="M71.1 30.9v-2.2c-1.7 1.7-4.1 2.7-6.6 2.7-3.2 0-7.3-2.2-7.3-7 0-5.2 4.1-6.8 7.3-6.8 2.8 0 5.3.9 6.6 2.5v-2.5c0-1.8-1.6-3.1-4.3-3.1-2.3 0-4.3.9-6 2.3l-2.4-4.3c2.7-2.2 6.1-3.3 9.6-3.3 5.1 0 9.9 1.9 9.9 8.5V31l-6.8-.1zm0-5.5v-1.8c-1-1.1-2.4-1.6-3.8-1.5-1.8 0-3.3.8-3.3 2.5s1.6 2.5 3.3 2.5c1.4 0 2.8-.6 3.8-1.7z" fill="url(#SVGID_3_)"/><linearGradient id="SVGID_4_" gradientUnits="userSpaceOnUse" x1="82.807" y1="37.776" x2="89.598" y2="37.776" gradientTransform="matrix(1 0 0 -1 0 54)"><stop offset="0" stop-color="#c82890"/><stop offset=".51" stop-color="#e92256"/><stop offset="1" stop-color="#ef4823"/></linearGradient><path d="M82.8 30.9V1.5h6.8v29.3l-6.8.1z" fill="url(#SVGID_4_)"/><linearGradient id="SVGID_5_" gradientUnits="userSpaceOnUse" x1="94.017" y1="38.531" x2="101.779" y2="38.531" gradientTransform="matrix(1 0 0 -1 0 54)"><stop offset="0" stop-color="#c82890"/><stop offset=".51" stop-color="#e92256"/><stop offset="1" stop-color="#ef4823"/></linearGradient><path d="M94 3.9C94 1.7 95.9 0 97.9 0c2.2 0 3.9 1.8 3.9 3.9 0 2.2-1.7 3.9-3.9 3.9-2.2.1-3.9-1.7-3.9-3.9 0 .1 0 0 0 0zm.6 27V9.7h6.7v21.2h-6.7z" fill="url(#SVGID_5_)"/><linearGradient id="SVGID_6_" gradientUnits="userSpaceOnUse" x1="104.15" y1="37.997" x2="121.398" y2="37.997" gradientTransform="matrix(1 0 0 -1 0 54)"><stop offset="0" stop-color="#c82890"/><stop offset=".51" stop-color="#e92256"/><stop offset="1" stop-color="#ef4823"/></linearGradient><path d="M107.7 30.9V15.5h-3.6V9.6h3.6V8.5c-.1-4 2.9-7.3 6.9-7.4h.6c2.3-.1 4.4.6 6.1 2.2l-2.5 3.9c-.5-.6-1.3-.9-2.2-.9-1.2-.1-2.3.9-2.4 2v1.3h4.3v5.9h-4.3v15.3l-6.5.1z" fill="url(#SVGID_6_)"/><linearGradient id="SVGID_7_" gradientUnits="userSpaceOnUse" x1="118.703" y1="29.314" x2="142.634" y2="29.314" gradientTransform="matrix(1 0 0 -1 0 54)"><stop offset="0" stop-color="#c82890"/><stop offset=".51" stop-color="#e92256"/><stop offset="1" stop-color="#ef4823"/></linearGradient><path d="M122.2 33.2c.5.2 1.1.4 1.7.4 1.5 0 2.5-.3 2.9-1.2l.4-1.2-8.5-21.6h7.1l4.7 13.5 4.9-13.5h7.2L133 34.1c-1.7 4.5-5 5.5-8.9 5.6-1 0-1.9-.1-2.9-.3l1-6.2z" fill="url(#SVGID_7_)"/><linearGradient id="SVGID_8_" gradientUnits="userSpaceOnUse" x1="144.6" y1="37.723" x2="173.381" y2="37.723" gradientTransform="matrix(1 0 0 -1 0 54)"><stop offset="0" stop-color="#c82890"/><stop offset=".51" stop-color="#e92256"/><stop offset="1" stop-color="#ef4823"/></linearGradient><path d="M144.6 16.3c0-9.1 6.9-15.2 16-15.2C166.1.9 171.2 4 173.4 9l-6.5 3.1c-1.1-2.6-3.6-4.2-6.3-4.3-4.5 0-8.2 3.6-8.2 8.1v.4c-.2 4.5 3.2 8.3 7.8 8.5h.4c2.8-.1 5.2-1.7 6.3-4.3l6.5 3.1c-2.3 5-7.3 8.1-12.8 7.9-9.1 0-16-6.2-16-15.2z" fill="url(#SVGID_8_)"/><linearGradient id="SVGID_9_" gradientUnits="userSpaceOnUse" x1="176.4" y1="37.776" x2="197.528" y2="37.776" gradientTransform="matrix(1 0 0 -1 0 54)"><stop offset="0" stop-color="#c82890"/><stop offset=".51" stop-color="#e92256"/><stop offset="1" stop-color="#ef4823"/></linearGradient><path d="M190.8 30.9V18.5c0-2.6-1.4-3.4-3.6-3.4-1.6 0-3.1.8-4.1 2v13.8h-6.8V1.5h6.8v10.7c1.8-2 4.5-3.2 7.3-3.1 4.9 0 7 2.7 7 6.7v15.1h-6.6z" fill="url(#SVGID_9_)"/><linearGradient id="SVGID_10_" gradientUnits="userSpaceOnUse" x1="201.301" y1="33.63" x2="221.998" y2="33.63" gradientTransform="matrix(1 0 0 -1 0 54)"><stop offset="0" stop-color="#c82890"/><stop offset=".51" stop-color="#e92256"/><stop offset="1" stop-color="#ef4823"/></linearGradient><path d="M215.2 30.9v-2.2c-1.7 1.7-4.1 2.7-6.6 2.7-3.2 0-7.3-2.2-7.3-7 0-5.2 4.1-6.8 7.3-6.8 2.8 0 5.3.9 6.6 2.5v-2.5c0-1.8-1.6-3.1-4.3-3.1-2.3 0-4.3.9-6 2.3l-2.4-4.3c2.7-2.2 6.1-3.3 9.6-3.2 5.1 0 9.9 1.9 9.9 8.5V31l-6.8-.1zm0-5.5v-1.9c-1-1.1-2.4-1.6-3.8-1.5-1.8 0-3.3.8-3.3 2.5s1.6 2.5 3.3 2.5c1.4.1 2.8-.5 3.8-1.6z" fill="url(#SVGID_10_)"/><linearGradient id="SVGID_11_" gradientUnits="userSpaceOnUse" x1="224.693" y1="36.321" x2="240" y2="36.321" gradientTransform="matrix(1 0 0 -1 0 54)"><stop offset="0" stop-color="#c82890"/><stop offset=".51" stop-color="#e92256"/><stop offset="1" stop-color="#ef4823"/></linearGradient><path d="M228.3 25.2v-9.6h-3.6V9.7h3.6V3.9h6.7v5.8h4.3v5.9H235v7.7c-.1 1.1.6 2 1.7 2.2h.2c.6 0 1.2-.1 1.7-.5l1.4 5.2c-.9.8-2.5 1.4-5.1 1.4-4.3-.1-6.6-2.3-6.6-6.4z" fill="url(#SVGID_11_)"/><g><path class="st11" d="M256.7 50.7V29h10.7c3.9 0 6.2 2.5 6.2 5.6 0 2.7-1.9 4.5-3.7 4.9 2.3.4 4.1 2.7 4.1 5.4 0 3.3-2.3 5.8-6.4 5.8h-10.9zm13-15.5c0-1.6-1-2.9-3.1-2.9h-6v5.6h6c2 0 3.1-1 3.1-2.7zm.4 9.1c0-1.6-1.2-2.9-3.3-2.9h-6.2v6h6.2c2.1 0 3.3-1.3 3.3-3.1zM276.7 42.8c0-4.5 3.3-8.2 8-8.2s7.6 3.5 7.6 8.4v.8h-11.9c.2 2.3 2.1 4.3 4.9 4.3 1.4 0 3.3-.6 4.5-1.6l1.6 2.3c-1.6 1.4-3.9 2.3-6.4 2.3-4.8 0-8.3-3.3-8.3-8.3zm8-5.3c-2.9 0-4.3 2.3-4.3 4.1h8.9c-.3-1.9-1.5-4.1-4.6-4.1zM296.5 46.9v-9.1h-2.7v-2.9h2.7v-4.3h3.5v4.3h3.1v2.9H300V46c0 1 .6 1.9 1.4 1.9.6 0 1.2-.2 1.4-.6l.8 2.5c-.6.6-1.6 1-3.3 1-2.4.3-3.8-1.2-3.8-3.9zM315.6 50.7v-1.6c-1.2 1.2-2.9 2.1-5.1 2.1-2.5 0-5.4-1.6-5.4-5.1s2.9-5.1 5.4-5.1c2.1 0 3.9.6 5.1 2.1v-2.3c0-1.9-1.4-2.9-3.7-2.9-1.9 0-3.3.6-4.7 2.1l-1.4-2.3c1.9-1.6 4.1-2.5 6.6-2.5 3.5 0 6.6 1.4 6.6 5.8v10.3h-3.3v-.6h-.1zm0-3.5v-2.3c-.8-1-2.3-1.6-3.7-1.6-1.9 0-3.3 1-3.3 2.9 0 1.6 1.4 2.9 3.3 2.9 1.6-.3 3.1-.9 3.7-1.9z"/></g></svg>